<svg width="18" height="18" viewBox="0 0 18 18" fill="none" xmlns="http://www.w3.org/2000/svg">
<path d="M3.25 6.97518e-09H14.75C15.5801 -5.43467e-05 16.3788 0.317554 16.9822 0.887672C17.5856 1.45779 17.948 2.23719 17.995 3.066L18 3.25V14.75C18.0001 15.5801 17.6824 16.3788 17.1123 16.9822C16.5422 17.5856 15.7628 17.948 14.934 17.995L14.75 18H3.25C2.41986 18.0001 1.62117 17.6824 1.01777 17.1123C0.414367 16.5422 0.0519987 15.7628 0.00500012 14.934L6.97518e-09 14.75V3.25C-5.43467e-05 2.41986 0.317554 1.62117 0.887672 1.01777C1.45779 0.414367 2.23719 0.0519987 3.066 0.00500012L3.25 6.97518e-09H14.75H3.25ZM1.5 11.5V14.75C1.50002 15.1892 1.66517 15.6123 1.96268 15.9354C2.26019 16.2585 2.6683 16.4579 3.106 16.494L3.25 16.5H14.75C15.1893 16.5 15.6126 16.3347 15.9357 16.037C16.2588 15.7392 16.4581 15.3309 16.494 14.893L16.5 14.75V11.5H12.675C12.5087 12.3133 12.0774 13.0485 11.4486 13.5905C10.8197 14.1324 10.0289 14.4505 9.2 14.495L9 14.5C8.16861 14.4999 7.36079 14.2237 6.7034 13.7147C6.04601 13.2058 5.57629 12.4929 5.368 11.688L5.325 11.5H1.5V14.75V11.5ZM14.75 1.5H3.25C2.81081 1.50002 2.38768 1.66517 2.06461 1.96268C1.74154 2.26019 1.54214 2.6683 1.506 3.106L1.5 3.25V10H6C6.18124 10 6.35634 10.0656 6.49293 10.1848C6.62952 10.3039 6.71835 10.4684 6.743 10.648L6.75 10.75C6.74893 11.3341 6.97505 11.8958 7.38056 12.3162C7.78607 12.7366 8.33918 12.9828 8.92296 13.0028C9.50673 13.0228 10.0754 12.815 10.5087 12.4233C10.9421 12.0317 11.2061 11.4868 11.245 10.904L11.25 10.75C11.25 10.5688 11.3156 10.3937 11.4348 10.2571C11.5539 10.1205 11.7184 10.0316 11.898 10.007L12 10H16.5V3.25C16.5 2.81065 16.3347 2.38739 16.037 2.06429C15.7392 1.74119 15.3309 1.5419 14.893 1.506L14.75 1.5Z" fill="#939597"/>
</svg>
