<svg width="16" height="21" viewBox="0 0 16 21" fill="none" xmlns="http://www.w3.org/2000/svg">
<path d="M13.751 12.497C14.0464 12.497 14.339 12.5552 14.6119 12.6683C14.8848 12.7814 15.1328 12.9471 15.3416 13.1561C15.5505 13.365 15.7161 13.6131 15.8291 13.8861C15.9421 14.159 16.0001 14.4516 16 14.747V15.322C16 16.216 15.68 17.081 15.099 17.76C13.529 19.593 11.142 20.498 7.997 20.498C4.851 20.498 2.465 19.593 0.899 17.758C0.319247 17.0795 0.00048605 16.2165 0 15.324V14.746C-2.92039e-08 14.4506 0.0582055 14.1581 0.171291 13.8851C0.284376 13.6122 0.450126 13.3642 0.65907 13.1554C0.868015 12.9465 1.11606 12.7809 1.38904 12.6679C1.66201 12.555 1.95457 12.4969 2.25 12.497H13.751ZM13.751 13.997H2.249C2.15056 13.997 2.05308 14.0164 1.96214 14.0541C1.8712 14.0918 1.78859 14.1471 1.71902 14.2167C1.64946 14.2864 1.59431 14.3691 1.55673 14.4601C1.51915 14.5511 1.49987 14.6486 1.5 14.747V15.324C1.5 15.859 1.692 16.377 2.04 16.784C3.293 18.253 5.259 18.998 7.997 18.998C10.735 18.998 12.703 18.253 13.959 16.785C14.3076 16.3773 14.4992 15.8585 14.499 15.322V14.746C14.499 14.5475 14.4202 14.3572 14.28 14.2167C14.1397 14.0763 13.9495 13.9973 13.751 13.997ZM7.997 0.502014C8.65361 0.502014 9.30379 0.631343 9.91042 0.882616C10.517 1.13389 11.0682 1.50219 11.5325 1.96648C11.9968 2.43077 12.3651 2.98197 12.6164 3.5886C12.8677 4.19522 12.997 4.8454 12.997 5.50201C12.997 6.15862 12.8677 6.8088 12.6164 7.41543C12.3651 8.02206 11.9968 8.57326 11.5325 9.03755C11.0682 9.50184 10.517 9.87014 9.91042 10.1214C9.30379 10.3727 8.65361 10.502 7.997 10.502C6.67092 10.502 5.39915 9.97523 4.46147 9.03755C3.52378 8.09987 2.997 6.8281 2.997 5.50201C2.997 4.17593 3.52378 2.90416 4.46147 1.96648C5.39915 1.0288 6.67092 0.502014 7.997 0.502014ZM7.997 2.00201C7.53737 2.00201 7.08225 2.09254 6.65761 2.26844C6.23297 2.44433 5.84713 2.70214 5.52213 3.02714C5.19712 3.35215 4.93931 3.73798 4.76342 4.16262C4.58753 4.58726 4.497 5.04239 4.497 5.50201C4.497 5.96164 4.58753 6.41677 4.76342 6.84141C4.93931 7.26605 5.19712 7.65188 5.52213 7.97689C5.84713 8.30189 6.23297 8.5597 6.65761 8.73559C7.08225 8.91148 7.53737 9.00201 7.997 9.00201C8.92526 9.00201 9.8155 8.63326 10.4719 7.97689C11.1283 7.32051 11.497 6.43027 11.497 5.50201C11.497 4.57376 11.1283 3.68352 10.4719 3.02714C9.8155 2.37076 8.92526 2.00201 7.997 2.00201Z" fill="black"/>
</svg>
