<svg width="19" height="21" viewBox="0 0 19 21" fill="none" xmlns="http://www.w3.org/2000/svg">
<path d="M9.37275 0.750305C10.1068 0.758305 10.8378 0.843305 11.5538 1.00331C11.7063 1.03735 11.8444 1.11821 11.9487 1.23457C12.0531 1.35092 12.1185 1.49697 12.1358 1.65231L12.3058 3.17931C12.3297 3.39472 12.4039 3.6015 12.5224 3.78298C12.6409 3.96447 12.8004 4.11559 12.9879 4.22417C13.1755 4.33275 13.386 4.39575 13.6024 4.40811C13.8188 4.42046 14.035 4.38183 14.2338 4.29531L15.6338 3.68031C15.776 3.61766 15.9342 3.60075 16.0865 3.63192C16.2387 3.66309 16.3776 3.7408 16.4838 3.85431C17.4957 4.93542 18.2492 6.23193 18.6878 7.64631C18.7337 7.79494 18.7324 7.9542 18.6838 8.10202C18.6352 8.24983 18.5419 8.37889 18.4168 8.4713L17.1748 9.38731C17 9.51555 16.8578 9.68317 16.7599 9.87659C16.662 10.07 16.611 10.2838 16.6111 10.5006C16.6112 10.7174 16.6624 10.9311 16.7605 11.1244C16.8586 11.3177 17.0008 11.4852 17.1758 11.6133L18.4188 12.5283C18.5441 12.6208 18.6376 12.75 18.6861 12.898C18.7347 13.0461 18.736 13.2055 18.6898 13.3543C18.2514 14.7685 17.4982 16.065 16.4868 17.1463C16.3808 17.2598 16.2422 17.3375 16.0901 17.3689C15.938 17.4002 15.78 17.3836 15.6378 17.3213L14.2318 16.7043C14.0333 16.6171 13.8171 16.5779 13.6007 16.5898C13.3842 16.6018 13.1736 16.6645 12.986 16.773C12.7983 16.8815 12.6388 17.0327 12.5205 17.2143C12.4021 17.3959 12.3282 17.6028 12.3048 17.8183L12.1358 19.3443C12.1187 19.498 12.0546 19.6426 11.9522 19.7584C11.8498 19.8742 11.7142 19.9556 11.5638 19.9913C10.1156 20.3358 8.60688 20.3358 7.15875 19.9913C7.00836 19.9556 6.87268 19.8742 6.77029 19.7584C6.66789 19.6426 6.60379 19.498 6.58675 19.3443L6.41675 17.8203C6.39215 17.6057 6.31761 17.3999 6.19911 17.2194C6.0806 17.0388 5.92143 16.8886 5.73436 16.7806C5.5473 16.6727 5.33754 16.6101 5.12192 16.5979C4.9063 16.5857 4.69081 16.6242 4.49275 16.7103L3.08575 17.3263C2.94353 17.3886 2.78548 17.4052 2.63341 17.3739C2.48134 17.3425 2.34274 17.2648 2.23675 17.1513C1.22482 16.0688 0.471594 14.7709 0.0337531 13.3553C-0.0124558 13.2065 -0.0111902 13.0471 0.037374 12.899C0.0859381 12.751 0.17939 12.6218 0.304753 12.5293L1.54875 11.6133C1.7236 11.4851 1.86579 11.3176 1.9638 11.1242C2.06182 10.9308 2.11289 10.7171 2.11289 10.5003C2.11289 10.2835 2.06182 10.0698 1.9638 9.8764C1.86579 9.68303 1.7236 9.51547 1.54875 9.38731L0.305753 8.4733C0.180213 8.38095 0.0865621 8.25178 0.0378157 8.10375C-0.0109306 7.95572 -0.0123506 7.79618 0.0337531 7.64731C0.47257 6.23284 1.22648 4.93632 2.23875 3.85531C2.34486 3.74201 2.48351 3.66443 2.63558 3.63326C2.78764 3.6021 2.94563 3.61888 3.08775 3.68131L4.48775 4.29631C4.68677 4.38258 4.90325 4.42097 5.1198 4.40839C5.33635 4.39582 5.54693 4.33263 5.73463 4.2239C5.92232 4.11517 6.0819 3.96394 6.20054 3.78235C6.31918 3.60075 6.39358 3.39387 6.41775 3.17831L6.58775 1.65231C6.60491 1.49666 6.67036 1.35029 6.77491 1.23372C6.87947 1.11715 7.01788 1.03623 7.17075 1.00231C7.88875 0.843305 8.62075 0.759305 9.37275 0.750305ZM9.37275 2.25031C8.91881 2.25558 8.46588 2.29469 8.01775 2.36731L7.90875 3.34431C7.85883 3.79387 7.70393 4.2254 7.45656 4.60409C7.20919 4.98279 6.87627 5.29803 6.48466 5.52439C6.09305 5.75076 5.65372 5.8819 5.2021 5.90725C4.75048 5.93259 4.29923 5.85143 3.88475 5.67031L2.98675 5.27631C2.41474 5.97043 1.95946 6.75298 1.63875 7.59331L2.43675 8.18031C2.80097 8.44797 3.0971 8.79758 3.3012 9.20087C3.5053 9.60416 3.61165 10.0498 3.61165 10.5018C3.61165 10.9538 3.5053 11.3995 3.3012 11.8027C3.0971 12.206 2.80097 12.5556 2.43675 12.8233L1.63875 13.4113C1.95875 14.2533 2.41375 15.0373 2.98575 15.7333L3.89175 15.3363C4.30524 15.1558 4.75535 15.0748 5.20583 15.1C5.65631 15.1252 6.09458 15.2558 6.48537 15.4813C6.87616 15.7068 7.20854 16.0209 7.45577 16.3984C7.70299 16.7758 7.85815 17.206 7.90875 17.6543L8.01675 18.6383C8.90675 18.7883 9.81575 18.7883 10.7058 18.6383L10.8138 17.6543C10.8632 17.205 11.0177 16.7737 11.2648 16.3952C11.5119 16.0168 11.8446 15.7017 12.236 15.4757C12.6273 15.2496 13.0664 15.1188 13.5177 15.0939C13.969 15.069 14.4199 15.1507 14.8338 15.3323L15.7378 15.7283C16.3094 15.0337 16.7643 14.2509 17.0848 13.4103L16.2868 12.8223C15.9224 12.5548 15.626 12.2052 15.4218 11.8019C15.2176 11.3986 15.1112 10.9529 15.1112 10.5008C15.1112 10.0487 15.2176 9.60302 15.4218 9.19971C15.626 8.79641 15.9224 8.44684 16.2868 8.17931L17.0828 7.59231C16.762 6.75198 16.3068 5.96943 15.7348 5.27531L14.8388 5.66831C14.4245 5.84965 13.9734 5.93105 13.5219 5.90592C13.0704 5.88079 12.6311 5.74984 12.2396 5.52364C11.848 5.29744 11.5151 4.98233 11.2678 4.60376C11.0204 4.22518 10.8656 3.79376 10.8158 3.34431L10.7058 2.36831C10.2649 2.29624 9.81938 2.25714 9.37275 2.25131V2.25031ZM9.35975 6.75031C10.3543 6.75031 11.3081 7.14539 12.0114 7.84865C12.7147 8.55192 13.1098 9.50574 13.1098 10.5003C13.1098 11.4949 12.7147 12.4487 12.0114 13.152C11.3081 13.8552 10.3543 14.2503 9.35975 14.2503C8.36519 14.2503 7.41136 13.8552 6.7081 13.152C6.00484 12.4487 5.60975 11.4949 5.60975 10.5003C5.60975 9.50574 6.00484 8.55192 6.7081 7.84865C7.41136 7.14539 8.36519 6.75031 9.35975 6.75031ZM9.35975 8.25031C8.76302 8.25031 8.19072 8.48736 7.76876 8.90932C7.34681 9.33127 7.10975 9.90357 7.10975 10.5003C7.10975 11.097 7.34681 11.6693 7.76876 12.0913C8.19072 12.5133 8.76302 12.7503 9.35975 12.7503C9.95649 12.7503 10.5288 12.5133 10.9507 12.0913C11.3727 11.6693 11.6098 11.097 11.6098 10.5003C11.6098 9.90357 11.3727 9.33127 10.9507 8.90932C10.5288 8.48736 9.95649 8.25031 9.35975 8.25031Z" fill="black"/>
</svg>
